<mxfile host="www.draw.io" modified="2020-01-14T12:58:33.273Z" agent="Mozilla/5.0 (Windows NT 10.0; Win64; x64) AppleWebKit/537.36 (KHTML, like Gecko) Chrome/79.0.3945.117 Safari/537.36" etag="ZmsCGrBG96oR5fS6n7wB" version="12.5.1" type="github">
  <diagram id="X-OkMKWLQy2tq75HIEGW" name="Page-1">
    <mxGraphModel dx="4143" dy="762" grid="1" gridSize="10" guides="1" tooltips="1" connect="1" arrows="1" fold="1" page="1" pageScale="1" pageWidth="827" pageHeight="1169" math="0" shadow="0">
      <root>
        <mxCell id="0"/>
        <mxCell id="1" parent="0"/>
        <mxCell id="tQcQAvEuLJjqKO4Kpg8U-171" value="" style="group" parent="1" vertex="1" connectable="0">
          <mxGeometry x="-2074" y="141" width="840" height="700" as="geometry"/>
        </mxCell>
        <mxCell id="tQcQAvEuLJjqKO4Kpg8U-164" value="" style="group" parent="tQcQAvEuLJjqKO4Kpg8U-171" vertex="1" connectable="0">
          <mxGeometry width="840" height="700" as="geometry"/>
        </mxCell>
        <mxCell id="tQcQAvEuLJjqKO4Kpg8U-61" value="Trainer(s)" style="swimlane;fontStyle=0;childLayout=stackLayout;horizontal=1;startSize=26;fillColor=#f5f5f5;horizontalStack=0;resizeParent=1;resizeParentMax=0;resizeLast=0;collapsible=1;marginBottom=0;swimlaneFillColor=#ffffff;align=center;fontSize=14;strokeColor=#666666;fontColor=#333333;" parent="tQcQAvEuLJjqKO4Kpg8U-164" vertex="1">
          <mxGeometry y="44" width="160" height="316" as="geometry">
            <mxRectangle x="-790" width="90" height="26" as="alternateBounds"/>
          </mxGeometry>
        </mxCell>
        <mxCell id="tQcQAvEuLJjqKO4Kpg8U-62" value="Trainer(s) name" style="shape=partialRectangle;top=0;left=0;right=0;bottom=1;align=left;verticalAlign=middle;fillColor=none;spacingLeft=34;spacingRight=4;overflow=hidden;rotatable=0;points=[[0,0.5],[1,0.5]];portConstraint=eastwest;dropTarget=0;fontStyle=5;fontSize=12;" parent="tQcQAvEuLJjqKO4Kpg8U-61" vertex="1">
          <mxGeometry y="26" width="160" height="30" as="geometry"/>
        </mxCell>
        <mxCell id="tQcQAvEuLJjqKO4Kpg8U-63" value="ID trainer(s)" style="shape=partialRectangle;top=0;left=0;right=0;bottom=0;align=left;verticalAlign=top;fillColor=none;spacingLeft=34;spacingRight=4;overflow=hidden;rotatable=0;points=[[0,0.5],[1,0.5]];portConstraint=eastwest;dropTarget=0;fontSize=12;labelBackgroundColor=#F0F0F0;fontColor=#000000;" parent="tQcQAvEuLJjqKO4Kpg8U-61" vertex="1">
          <mxGeometry y="56" width="160" height="26" as="geometry"/>
        </mxCell>
        <mxCell id="tQcQAvEuLJjqKO4Kpg8U-64" value="first name" style="shape=partialRectangle;top=0;left=0;right=0;bottom=0;align=left;verticalAlign=top;fillColor=none;spacingLeft=34;spacingRight=4;overflow=hidden;rotatable=0;points=[[0,0.5],[1,0.5]];portConstraint=eastwest;dropTarget=0;fontSize=12;" parent="tQcQAvEuLJjqKO4Kpg8U-61" vertex="1">
          <mxGeometry y="82" width="160" height="26" as="geometry"/>
        </mxCell>
        <mxCell id="tQcQAvEuLJjqKO4Kpg8U-65" value="last name" style="shape=partialRectangle;top=0;left=0;right=0;bottom=0;align=left;verticalAlign=top;fillColor=none;spacingLeft=34;spacingRight=4;overflow=hidden;rotatable=0;points=[[0,0.5],[1,0.5]];portConstraint=eastwest;dropTarget=0;fontSize=12;" parent="tQcQAvEuLJjqKO4Kpg8U-61" vertex="1">
          <mxGeometry y="108" width="160" height="26" as="geometry"/>
        </mxCell>
        <mxCell id="tQcQAvEuLJjqKO4Kpg8U-66" value="birth date" style="shape=partialRectangle;top=0;left=0;right=0;bottom=0;align=left;verticalAlign=top;fillColor=none;spacingLeft=34;spacingRight=4;overflow=hidden;rotatable=0;points=[[0,0.5],[1,0.5]];portConstraint=eastwest;dropTarget=0;fontSize=12;" parent="tQcQAvEuLJjqKO4Kpg8U-61" vertex="1">
          <mxGeometry y="134" width="160" height="26" as="geometry"/>
        </mxCell>
        <mxCell id="tQcQAvEuLJjqKO4Kpg8U-67" value="address" style="shape=partialRectangle;top=0;left=0;right=0;bottom=0;align=left;verticalAlign=top;fillColor=none;spacingLeft=34;spacingRight=4;overflow=hidden;rotatable=0;points=[[0,0.5],[1,0.5]];portConstraint=eastwest;dropTarget=0;fontSize=12;" parent="tQcQAvEuLJjqKO4Kpg8U-61" vertex="1">
          <mxGeometry y="160" width="160" height="26" as="geometry"/>
        </mxCell>
        <mxCell id="tQcQAvEuLJjqKO4Kpg8U-68" value="experiences" style="shape=partialRectangle;top=0;left=0;right=0;bottom=0;align=left;verticalAlign=top;fillColor=none;spacingLeft=34;spacingRight=4;overflow=hidden;rotatable=0;points=[[0,0.5],[1,0.5]];portConstraint=eastwest;dropTarget=0;fontSize=12;" parent="tQcQAvEuLJjqKO4Kpg8U-61" vertex="1">
          <mxGeometry y="186" width="160" height="26" as="geometry"/>
        </mxCell>
        <mxCell id="tQcQAvEuLJjqKO4Kpg8U-69" value="specialties" style="shape=partialRectangle;top=0;left=0;right=0;bottom=0;align=left;verticalAlign=top;fillColor=none;spacingLeft=34;spacingRight=4;overflow=hidden;rotatable=0;points=[[0,0.5],[1,0.5]];portConstraint=eastwest;dropTarget=0;fontSize=12;" parent="tQcQAvEuLJjqKO4Kpg8U-61" vertex="1">
          <mxGeometry y="212" width="160" height="26" as="geometry"/>
        </mxCell>
        <mxCell id="tQcQAvEuLJjqKO4Kpg8U-70" value="availability" style="shape=partialRectangle;top=0;left=0;right=0;bottom=0;align=left;verticalAlign=top;fillColor=none;spacingLeft=34;spacingRight=4;overflow=hidden;rotatable=0;points=[[0,0.5],[1,0.5]];portConstraint=eastwest;dropTarget=0;fontSize=12;" parent="tQcQAvEuLJjqKO4Kpg8U-61" vertex="1">
          <mxGeometry y="238" width="160" height="26" as="geometry"/>
        </mxCell>
        <mxCell id="tQcQAvEuLJjqKO4Kpg8U-71" value="contract" style="shape=partialRectangle;top=0;left=0;right=0;bottom=0;align=left;verticalAlign=top;fillColor=none;spacingLeft=34;spacingRight=4;overflow=hidden;rotatable=0;points=[[0,0.5],[1,0.5]];portConstraint=eastwest;dropTarget=0;fontSize=12;" parent="tQcQAvEuLJjqKO4Kpg8U-61" vertex="1">
          <mxGeometry y="264" width="160" height="26" as="geometry"/>
        </mxCell>
        <mxCell id="tQcQAvEuLJjqKO4Kpg8U-72" value="training center" style="shape=partialRectangle;top=0;left=0;right=0;bottom=0;align=left;verticalAlign=top;fillColor=none;spacingLeft=34;spacingRight=4;overflow=hidden;rotatable=0;points=[[0,0.5],[1,0.5]];portConstraint=eastwest;dropTarget=0;fontSize=12;" parent="tQcQAvEuLJjqKO4Kpg8U-61" vertex="1">
          <mxGeometry y="290" width="160" height="26" as="geometry"/>
        </mxCell>
        <mxCell id="tQcQAvEuLJjqKO4Kpg8U-167" style="edgeStyle=orthogonalEdgeStyle;rounded=0;orthogonalLoop=1;jettySize=auto;html=1;exitX=0.25;exitY=0;exitDx=0;exitDy=0;entryX=1;entryY=0.269;entryDx=0;entryDy=0;entryPerimeter=0;dashed=1;fontColor=#000000;" parent="tQcQAvEuLJjqKO4Kpg8U-164" source="tQcQAvEuLJjqKO4Kpg8U-80" target="tQcQAvEuLJjqKO4Kpg8U-94" edge="1">
          <mxGeometry relative="1" as="geometry"/>
        </mxCell>
        <mxCell id="tQcQAvEuLJjqKO4Kpg8U-80" value="Training centers" style="swimlane;fontStyle=0;childLayout=stackLayout;horizontal=1;startSize=26;fillColor=#f5f5f5;horizontalStack=0;resizeParent=1;resizeParentMax=0;resizeLast=0;collapsible=1;marginBottom=0;swimlaneFillColor=#ffffff;align=center;fontSize=14;strokeColor=#666666;fontColor=#333333;" parent="tQcQAvEuLJjqKO4Kpg8U-164" vertex="1">
          <mxGeometry x="550" y="300" width="170" height="186" as="geometry">
            <mxRectangle x="-590" width="90" height="26" as="alternateBounds"/>
          </mxGeometry>
        </mxCell>
        <mxCell id="tQcQAvEuLJjqKO4Kpg8U-81" value="centers" style="shape=partialRectangle;top=0;left=0;right=0;bottom=1;align=left;verticalAlign=middle;fillColor=none;spacingLeft=34;spacingRight=4;overflow=hidden;rotatable=0;points=[[0,0.5],[1,0.5]];portConstraint=eastwest;dropTarget=0;fontStyle=5;fontSize=12;" parent="tQcQAvEuLJjqKO4Kpg8U-80" vertex="1">
          <mxGeometry y="26" width="170" height="30" as="geometry"/>
        </mxCell>
        <mxCell id="tQcQAvEuLJjqKO4Kpg8U-82" value="ID centers" style="shape=partialRectangle;top=0;left=0;right=0;bottom=0;align=left;verticalAlign=top;fillColor=none;spacingLeft=34;spacingRight=4;overflow=hidden;rotatable=0;points=[[0,0.5],[1,0.5]];portConstraint=eastwest;dropTarget=0;fontSize=12;" parent="tQcQAvEuLJjqKO4Kpg8U-80" vertex="1">
          <mxGeometry y="56" width="170" height="26" as="geometry"/>
        </mxCell>
        <mxCell id="tQcQAvEuLJjqKO4Kpg8U-84" value="date of formation" style="shape=partialRectangle;top=0;left=0;right=0;bottom=0;align=left;verticalAlign=top;fillColor=none;spacingLeft=34;spacingRight=4;overflow=hidden;rotatable=0;points=[[0,0.5],[1,0.5]];portConstraint=eastwest;dropTarget=0;fontSize=12;" parent="tQcQAvEuLJjqKO4Kpg8U-80" vertex="1">
          <mxGeometry y="82" width="170" height="26" as="geometry"/>
        </mxCell>
        <mxCell id="tQcQAvEuLJjqKO4Kpg8U-85" value="specialties" style="shape=partialRectangle;top=0;left=0;right=0;bottom=0;align=left;verticalAlign=top;fillColor=none;spacingLeft=34;spacingRight=4;overflow=hidden;rotatable=0;points=[[0,0.5],[1,0.5]];portConstraint=eastwest;dropTarget=0;fontSize=12;" parent="tQcQAvEuLJjqKO4Kpg8U-80" vertex="1">
          <mxGeometry y="108" width="170" height="26" as="geometry"/>
        </mxCell>
        <mxCell id="tQcQAvEuLJjqKO4Kpg8U-88" value="adress" style="shape=partialRectangle;top=0;left=0;right=0;bottom=0;align=left;verticalAlign=top;fillColor=none;spacingLeft=34;spacingRight=4;overflow=hidden;rotatable=0;points=[[0,0.5],[1,0.5]];portConstraint=eastwest;dropTarget=0;fontSize=12;strokeWidth=1;" parent="tQcQAvEuLJjqKO4Kpg8U-80" vertex="1">
          <mxGeometry y="134" width="170" height="26" as="geometry"/>
        </mxCell>
        <mxCell id="tQcQAvEuLJjqKO4Kpg8U-89" value="cities" style="shape=partialRectangle;top=0;left=0;right=0;bottom=0;align=left;verticalAlign=top;fillColor=none;spacingLeft=34;spacingRight=4;overflow=hidden;rotatable=0;points=[[0,0.5],[1,0.5]];portConstraint=eastwest;dropTarget=0;fontSize=12;strokeWidth=1;" parent="tQcQAvEuLJjqKO4Kpg8U-80" vertex="1">
          <mxGeometry y="160" width="170" height="26" as="geometry"/>
        </mxCell>
        <mxCell id="tQcQAvEuLJjqKO4Kpg8U-90" value="Room(s)" style="swimlane;fontStyle=0;childLayout=stackLayout;horizontal=1;startSize=26;fillColor=#f5f5f5;horizontalStack=0;resizeParent=1;resizeParentMax=0;resizeLast=0;collapsible=1;marginBottom=0;swimlaneFillColor=#ffffff;align=center;fontSize=14;strokeColor=#666666;fontColor=#333333;" parent="tQcQAvEuLJjqKO4Kpg8U-164" vertex="1">
          <mxGeometry x="260" width="160" height="160" as="geometry">
            <mxRectangle x="-30" width="90" height="26" as="alternateBounds"/>
          </mxGeometry>
        </mxCell>
        <mxCell id="tQcQAvEuLJjqKO4Kpg8U-91" value="numero room" style="shape=partialRectangle;top=0;left=0;right=0;bottom=1;align=left;verticalAlign=middle;fillColor=none;spacingLeft=34;spacingRight=4;overflow=hidden;rotatable=0;points=[[0,0.5],[1,0.5]];portConstraint=eastwest;dropTarget=0;fontStyle=5;fontSize=12;" parent="tQcQAvEuLJjqKO4Kpg8U-90" vertex="1">
          <mxGeometry y="26" width="160" height="30" as="geometry"/>
        </mxCell>
        <mxCell id="tQcQAvEuLJjqKO4Kpg8U-92" value="ID room(s)" style="shape=partialRectangle;top=0;left=0;right=0;bottom=0;align=left;verticalAlign=top;fillColor=none;spacingLeft=34;spacingRight=4;overflow=hidden;rotatable=0;points=[[0,0.5],[1,0.5]];portConstraint=eastwest;dropTarget=0;fontSize=12;" parent="tQcQAvEuLJjqKO4Kpg8U-90" vertex="1">
          <mxGeometry y="56" width="160" height="26" as="geometry"/>
        </mxCell>
        <mxCell id="tQcQAvEuLJjqKO4Kpg8U-93" value="batiment" style="shape=partialRectangle;top=0;left=0;right=0;bottom=0;align=left;verticalAlign=top;fillColor=none;spacingLeft=34;spacingRight=4;overflow=hidden;rotatable=0;points=[[0,0.5],[1,0.5]];portConstraint=eastwest;dropTarget=0;fontSize=12;labelBackgroundColor=#F0F0F0;fontColor=#000000;" parent="tQcQAvEuLJjqKO4Kpg8U-90" vertex="1">
          <mxGeometry y="82" width="160" height="26" as="geometry"/>
        </mxCell>
        <mxCell id="tQcQAvEuLJjqKO4Kpg8U-94" value="number" style="shape=partialRectangle;top=0;left=0;right=0;bottom=0;align=left;verticalAlign=top;fillColor=none;spacingLeft=34;spacingRight=4;overflow=hidden;rotatable=0;points=[[0,0.5],[1,0.5]];portConstraint=eastwest;dropTarget=0;fontSize=12;labelBackgroundColor=#F0F0F0;fontColor=#000000;" parent="tQcQAvEuLJjqKO4Kpg8U-90" vertex="1">
          <mxGeometry y="108" width="160" height="26" as="geometry"/>
        </mxCell>
        <mxCell id="tQcQAvEuLJjqKO4Kpg8U-97" value="ID center" style="shape=partialRectangle;top=0;left=0;right=0;bottom=0;align=left;verticalAlign=top;fillColor=none;spacingLeft=34;spacingRight=4;overflow=hidden;rotatable=0;points=[[0,0.5],[1,0.5]];portConstraint=eastwest;dropTarget=0;fontSize=12;labelBackgroundColor=#F0F0F0;fontColor=#000000;" parent="tQcQAvEuLJjqKO4Kpg8U-90" vertex="1">
          <mxGeometry y="134" width="160" height="26" as="geometry"/>
        </mxCell>
        <mxCell id="tQcQAvEuLJjqKO4Kpg8U-108" value="Formation(s)" style="swimlane;fontStyle=0;childLayout=stackLayout;horizontal=1;startSize=26;fillColor=#f5f5f5;horizontalStack=0;resizeParent=1;resizeParentMax=0;resizeLast=0;collapsible=1;marginBottom=0;swimlaneFillColor=#ffffff;align=center;fontSize=14;strokeColor=#666666;fontColor=#333333;" parent="tQcQAvEuLJjqKO4Kpg8U-164" vertex="1">
          <mxGeometry x="258" y="211" width="170" height="212" as="geometry">
            <mxRectangle x="-590" width="90" height="26" as="alternateBounds"/>
          </mxGeometry>
        </mxCell>
        <mxCell id="tQcQAvEuLJjqKO4Kpg8U-109" value="formation names" style="shape=partialRectangle;top=0;left=0;right=0;bottom=1;align=left;verticalAlign=middle;fillColor=none;spacingLeft=34;spacingRight=4;overflow=hidden;rotatable=0;points=[[0,0.5],[1,0.5]];portConstraint=eastwest;dropTarget=0;fontStyle=5;fontSize=12;" parent="tQcQAvEuLJjqKO4Kpg8U-108" vertex="1">
          <mxGeometry y="26" width="170" height="30" as="geometry"/>
        </mxCell>
        <mxCell id="tQcQAvEuLJjqKO4Kpg8U-110" value="ID formation(s)" style="shape=partialRectangle;top=0;left=0;right=0;bottom=0;align=left;verticalAlign=top;fillColor=none;spacingLeft=34;spacingRight=4;overflow=hidden;rotatable=0;points=[[0,0.5],[1,0.5]];portConstraint=eastwest;dropTarget=0;fontSize=12;" parent="tQcQAvEuLJjqKO4Kpg8U-108" vertex="1">
          <mxGeometry y="56" width="170" height="26" as="geometry"/>
        </mxCell>
        <mxCell id="tQcQAvEuLJjqKO4Kpg8U-111" value="trainers" style="shape=partialRectangle;top=0;left=0;right=0;bottom=0;align=left;verticalAlign=top;fillColor=none;spacingLeft=34;spacingRight=4;overflow=hidden;rotatable=0;points=[[0,0.5],[1,0.5]];portConstraint=eastwest;dropTarget=0;fontSize=12;labelBackgroundColor=#F0F0F0;fontColor=#000000;" parent="tQcQAvEuLJjqKO4Kpg8U-108" vertex="1">
          <mxGeometry y="82" width="170" height="26" as="geometry"/>
        </mxCell>
        <mxCell id="tQcQAvEuLJjqKO4Kpg8U-112" value="date of formation" style="shape=partialRectangle;top=0;left=0;right=0;bottom=0;align=left;verticalAlign=top;fillColor=none;spacingLeft=34;spacingRight=4;overflow=hidden;rotatable=0;points=[[0,0.5],[1,0.5]];portConstraint=eastwest;dropTarget=0;fontSize=12;" parent="tQcQAvEuLJjqKO4Kpg8U-108" vertex="1">
          <mxGeometry y="108" width="170" height="26" as="geometry"/>
        </mxCell>
        <mxCell id="tQcQAvEuLJjqKO4Kpg8U-113" value="specialties" style="shape=partialRectangle;top=0;left=0;right=0;bottom=0;align=left;verticalAlign=top;fillColor=none;spacingLeft=34;spacingRight=4;overflow=hidden;rotatable=0;points=[[0,0.5],[1,0.5]];portConstraint=eastwest;dropTarget=0;fontSize=12;" parent="tQcQAvEuLJjqKO4Kpg8U-108" vertex="1">
          <mxGeometry y="134" width="170" height="26" as="geometry"/>
        </mxCell>
        <mxCell id="tQcQAvEuLJjqKO4Kpg8U-115" value="training center" style="shape=partialRectangle;top=0;left=0;right=0;bottom=0;align=left;verticalAlign=top;fillColor=none;spacingLeft=34;spacingRight=4;overflow=hidden;rotatable=0;points=[[0,0.5],[1,0.5]];portConstraint=eastwest;dropTarget=0;fontSize=12;strokeWidth=1;" parent="tQcQAvEuLJjqKO4Kpg8U-108" vertex="1">
          <mxGeometry y="160" width="170" height="26" as="geometry"/>
        </mxCell>
        <mxCell id="tQcQAvEuLJjqKO4Kpg8U-116" value="adress" style="shape=partialRectangle;top=0;left=0;right=0;bottom=0;align=left;verticalAlign=top;fillColor=none;spacingLeft=34;spacingRight=4;overflow=hidden;rotatable=0;points=[[0,0.5],[1,0.5]];portConstraint=eastwest;dropTarget=0;fontSize=12;strokeWidth=1;" parent="tQcQAvEuLJjqKO4Kpg8U-108" vertex="1">
          <mxGeometry y="186" width="170" height="26" as="geometry"/>
        </mxCell>
        <mxCell id="tQcQAvEuLJjqKO4Kpg8U-118" style="edgeStyle=orthogonalEdgeStyle;rounded=0;orthogonalLoop=1;jettySize=auto;html=1;exitX=1;exitY=0.5;exitDx=0;exitDy=0;entryX=-0.012;entryY=0.034;entryDx=0;entryDy=0;entryPerimeter=0;" parent="tQcQAvEuLJjqKO4Kpg8U-164" source="tQcQAvEuLJjqKO4Kpg8U-111" target="tQcQAvEuLJjqKO4Kpg8U-80" edge="1">
          <mxGeometry relative="1" as="geometry"/>
        </mxCell>
        <mxCell id="tQcQAvEuLJjqKO4Kpg8U-119" value="&lt;font color=&quot;#000000&quot;&gt;n, m&lt;/font&gt;m" style="text;html=1;align=center;verticalAlign=middle;resizable=0;points=[];autosize=1;fontColor=#FFFFFF;strokeColor=#000000;" parent="tQcQAvEuLJjqKO4Kpg8U-164" vertex="1">
          <mxGeometry x="439" y="306" width="50" height="20" as="geometry"/>
        </mxCell>
        <mxCell id="tQcQAvEuLJjqKO4Kpg8U-120" style="edgeStyle=orthogonalEdgeStyle;rounded=0;orthogonalLoop=1;jettySize=auto;html=1;exitX=1;exitY=0.5;exitDx=0;exitDy=0;entryX=0.5;entryY=0;entryDx=0;entryDy=0;fontColor=#FFFFFF;" parent="tQcQAvEuLJjqKO4Kpg8U-164" source="tQcQAvEuLJjqKO4Kpg8U-93" target="tQcQAvEuLJjqKO4Kpg8U-80" edge="1">
          <mxGeometry relative="1" as="geometry"/>
        </mxCell>
        <mxCell id="tQcQAvEuLJjqKO4Kpg8U-122" value="" style="endArrow=none;html=1;fontColor=#FFFFFF;" parent="tQcQAvEuLJjqKO4Kpg8U-164" edge="1">
          <mxGeometry width="50" height="50" relative="1" as="geometry">
            <mxPoint x="420" y="151" as="sourcePoint"/>
            <mxPoint x="634" y="151" as="targetPoint"/>
          </mxGeometry>
        </mxCell>
        <mxCell id="tQcQAvEuLJjqKO4Kpg8U-123" value="" style="endArrow=none;html=1;fontColor=#FFFFFF;exitX=1;exitY=0;exitDx=0;exitDy=0;" parent="tQcQAvEuLJjqKO4Kpg8U-164" source="tQcQAvEuLJjqKO4Kpg8U-90" edge="1">
          <mxGeometry width="50" height="50" relative="1" as="geometry">
            <mxPoint x="419" y="10" as="sourcePoint"/>
            <mxPoint x="635" y="94" as="targetPoint"/>
          </mxGeometry>
        </mxCell>
        <mxCell id="tQcQAvEuLJjqKO4Kpg8U-126" style="edgeStyle=orthogonalEdgeStyle;rounded=0;orthogonalLoop=1;jettySize=auto;html=1;exitX=1;exitY=0.5;exitDx=0;exitDy=0;fontColor=#FFFFFF;" parent="tQcQAvEuLJjqKO4Kpg8U-164" source="tQcQAvEuLJjqKO4Kpg8U-62" target="tQcQAvEuLJjqKO4Kpg8U-91" edge="1">
          <mxGeometry relative="1" as="geometry"/>
        </mxCell>
        <mxCell id="tQcQAvEuLJjqKO4Kpg8U-127" value="&lt;font color=&quot;#000000&quot;&gt;n, m&lt;/font&gt;" style="text;html=1;align=center;verticalAlign=middle;resizable=0;points=[];autosize=1;fontColor=#FFFFFF;strokeColor=#000000;" parent="tQcQAvEuLJjqKO4Kpg8U-164" vertex="1">
          <mxGeometry x="170" y="85" width="40" height="20" as="geometry"/>
        </mxCell>
        <mxCell id="tQcQAvEuLJjqKO4Kpg8U-129" value="Travailler" style="text;html=1;align=center;verticalAlign=middle;resizable=0;points=[];autosize=1;fontColor=#000000;strokeColor=#000000;" parent="tQcQAvEuLJjqKO4Kpg8U-164" vertex="1">
          <mxGeometry x="180" y="21" width="60" height="20" as="geometry"/>
        </mxCell>
        <mxCell id="tQcQAvEuLJjqKO4Kpg8U-130" value="Contenir" style="text;html=1;align=center;verticalAlign=middle;resizable=0;points=[];autosize=1;fontColor=#000000;strokeColor=#000000;" parent="tQcQAvEuLJjqKO4Kpg8U-164" vertex="1">
          <mxGeometry x="508" y="74" width="60" height="20" as="geometry"/>
        </mxCell>
        <mxCell id="tQcQAvEuLJjqKO4Kpg8U-131" value="Travailler" style="text;html=1;align=center;verticalAlign=middle;resizable=0;points=[];autosize=1;fontColor=#000000;strokeColor=#000000;" parent="tQcQAvEuLJjqKO4Kpg8U-164" vertex="1">
          <mxGeometry x="439" y="326" width="60" height="20" as="geometry"/>
        </mxCell>
        <mxCell id="tQcQAvEuLJjqKO4Kpg8U-132" value="&lt;font color=&quot;#000000&quot;&gt;n, m&lt;/font&gt;" style="text;html=1;align=center;verticalAlign=middle;resizable=0;points=[];autosize=1;fontColor=#FFFFFF;strokeColor=#000000;" parent="tQcQAvEuLJjqKO4Kpg8U-164" vertex="1">
          <mxGeometry x="323" y="474" width="40" height="20" as="geometry"/>
        </mxCell>
        <mxCell id="tQcQAvEuLJjqKO4Kpg8U-145" style="edgeStyle=orthogonalEdgeStyle;rounded=0;orthogonalLoop=1;jettySize=auto;html=1;entryX=0;entryY=0.5;entryDx=0;entryDy=0;fontColor=#000000;" parent="tQcQAvEuLJjqKO4Kpg8U-164" source="tQcQAvEuLJjqKO4Kpg8U-133" target="tQcQAvEuLJjqKO4Kpg8U-81" edge="1">
          <mxGeometry relative="1" as="geometry">
            <Array as="points">
              <mxPoint x="343" y="434"/>
              <mxPoint x="520" y="434"/>
              <mxPoint x="520" y="341"/>
            </Array>
          </mxGeometry>
        </mxCell>
        <mxCell id="tQcQAvEuLJjqKO4Kpg8U-133" value="Travailler" style="text;html=1;align=center;verticalAlign=middle;resizable=0;points=[];autosize=1;fontColor=#000000;strokeColor=#000000;" parent="tQcQAvEuLJjqKO4Kpg8U-164" vertex="1">
          <mxGeometry x="313" y="454" width="60" height="20" as="geometry"/>
        </mxCell>
        <mxCell id="tQcQAvEuLJjqKO4Kpg8U-135" value="&lt;font color=&quot;#000000&quot;&gt;1, 1&lt;/font&gt;" style="text;html=1;align=center;verticalAlign=middle;resizable=0;points=[];autosize=1;fontColor=#FFFFFF;strokeColor=#000000;" parent="tQcQAvEuLJjqKO4Kpg8U-164" vertex="1">
          <mxGeometry x="436" y="24" width="40" height="20" as="geometry"/>
        </mxCell>
        <mxCell id="tQcQAvEuLJjqKO4Kpg8U-136" value="Buildings" style="swimlane;fontStyle=0;childLayout=stackLayout;horizontal=1;startSize=26;fillColor=#f5f5f5;horizontalStack=0;resizeParent=1;resizeParentMax=0;resizeLast=0;collapsible=1;marginBottom=0;swimlaneFillColor=#ffffff;align=center;fontSize=14;strokeColor=#666666;fontColor=#333333;" parent="tQcQAvEuLJjqKO4Kpg8U-164" vertex="1">
          <mxGeometry x="680" y="15" width="160" height="160" as="geometry">
            <mxRectangle x="-30" width="90" height="26" as="alternateBounds"/>
          </mxGeometry>
        </mxCell>
        <mxCell id="tQcQAvEuLJjqKO4Kpg8U-137" value="buildings" style="shape=partialRectangle;top=0;left=0;right=0;bottom=1;align=left;verticalAlign=middle;fillColor=none;spacingLeft=34;spacingRight=4;overflow=hidden;rotatable=0;points=[[0,0.5],[1,0.5]];portConstraint=eastwest;dropTarget=0;fontStyle=5;fontSize=12;" parent="tQcQAvEuLJjqKO4Kpg8U-136" vertex="1">
          <mxGeometry y="26" width="160" height="30" as="geometry"/>
        </mxCell>
        <mxCell id="tQcQAvEuLJjqKO4Kpg8U-138" value="ID buldings" style="shape=partialRectangle;top=0;left=0;right=0;bottom=0;align=left;verticalAlign=top;fillColor=none;spacingLeft=34;spacingRight=4;overflow=hidden;rotatable=0;points=[[0,0.5],[1,0.5]];portConstraint=eastwest;dropTarget=0;fontSize=12;" parent="tQcQAvEuLJjqKO4Kpg8U-136" vertex="1">
          <mxGeometry y="56" width="160" height="26" as="geometry"/>
        </mxCell>
        <mxCell id="tQcQAvEuLJjqKO4Kpg8U-139" value="b1" style="shape=partialRectangle;top=0;left=0;right=0;bottom=0;align=left;verticalAlign=top;fillColor=none;spacingLeft=34;spacingRight=4;overflow=hidden;rotatable=0;points=[[0,0.5],[1,0.5]];portConstraint=eastwest;dropTarget=0;fontSize=12;labelBackgroundColor=#F0F0F0;fontColor=#000000;" parent="tQcQAvEuLJjqKO4Kpg8U-136" vertex="1">
          <mxGeometry y="82" width="160" height="26" as="geometry"/>
        </mxCell>
        <mxCell id="tQcQAvEuLJjqKO4Kpg8U-140" value="b2" style="shape=partialRectangle;top=0;left=0;right=0;bottom=0;align=left;verticalAlign=top;fillColor=none;spacingLeft=34;spacingRight=4;overflow=hidden;rotatable=0;points=[[0,0.5],[1,0.5]];portConstraint=eastwest;dropTarget=0;fontSize=12;labelBackgroundColor=#F0F0F0;fontColor=#000000;" parent="tQcQAvEuLJjqKO4Kpg8U-136" vertex="1">
          <mxGeometry y="108" width="160" height="26" as="geometry"/>
        </mxCell>
        <mxCell id="tQcQAvEuLJjqKO4Kpg8U-141" value="b3" style="shape=partialRectangle;top=0;left=0;right=0;bottom=0;align=left;verticalAlign=top;fillColor=none;spacingLeft=34;spacingRight=4;overflow=hidden;rotatable=0;points=[[0,0.5],[1,0.5]];portConstraint=eastwest;dropTarget=0;fontSize=12;labelBackgroundColor=#F0F0F0;fontColor=#000000;" parent="tQcQAvEuLJjqKO4Kpg8U-136" vertex="1">
          <mxGeometry y="134" width="160" height="26" as="geometry"/>
        </mxCell>
        <mxCell id="tQcQAvEuLJjqKO4Kpg8U-142" value="" style="endArrow=none;html=1;fontColor=#000000;entryX=0;entryY=0.033;entryDx=0;entryDy=0;entryPerimeter=0;" parent="tQcQAvEuLJjqKO4Kpg8U-164" target="tQcQAvEuLJjqKO4Kpg8U-137" edge="1">
          <mxGeometry width="50" height="50" relative="1" as="geometry">
            <mxPoint x="635" y="124" as="sourcePoint"/>
            <mxPoint x="685" y="74" as="targetPoint"/>
          </mxGeometry>
        </mxCell>
        <mxCell id="tQcQAvEuLJjqKO4Kpg8U-147" style="edgeStyle=orthogonalEdgeStyle;rounded=0;orthogonalLoop=1;jettySize=auto;html=1;exitX=1;exitY=0.5;exitDx=0;exitDy=0;entryX=0;entryY=0.5;entryDx=0;entryDy=0;fontColor=#000000;" parent="tQcQAvEuLJjqKO4Kpg8U-164" source="tQcQAvEuLJjqKO4Kpg8U-69" target="tQcQAvEuLJjqKO4Kpg8U-110" edge="1">
          <mxGeometry relative="1" as="geometry">
            <Array as="points">
              <mxPoint x="160" y="114"/>
              <mxPoint x="230" y="114"/>
              <mxPoint x="230" y="280"/>
            </Array>
          </mxGeometry>
        </mxCell>
        <mxCell id="tQcQAvEuLJjqKO4Kpg8U-148" value="&lt;font color=&quot;#000000&quot;&gt;n, 1&lt;/font&gt;" style="text;html=1;align=center;verticalAlign=middle;resizable=0;points=[];autosize=1;fontColor=#FFFFFF;strokeColor=#000000;" parent="tQcQAvEuLJjqKO4Kpg8U-164" vertex="1">
          <mxGeometry x="190" y="170" width="40" height="20" as="geometry"/>
        </mxCell>
        <mxCell id="tQcQAvEuLJjqKO4Kpg8U-149" value="Former" style="text;html=1;align=center;verticalAlign=middle;resizable=0;points=[];autosize=1;fontColor=#000000;strokeColor=#000000;" parent="tQcQAvEuLJjqKO4Kpg8U-164" vertex="1">
          <mxGeometry x="180" y="190" width="50" height="20" as="geometry"/>
        </mxCell>
        <mxCell id="tQcQAvEuLJjqKO4Kpg8U-150" value="" style="endArrow=none;html=1;fontColor=#000000;entryX=0;entryY=0.55;entryDx=0;entryDy=0;entryPerimeter=0;dashed=1;" parent="tQcQAvEuLJjqKO4Kpg8U-164" target="tQcQAvEuLJjqKO4Kpg8U-133" edge="1">
          <mxGeometry width="50" height="50" relative="1" as="geometry">
            <mxPoint x="70" y="360" as="sourcePoint"/>
            <mxPoint x="110" y="430" as="targetPoint"/>
          </mxGeometry>
        </mxCell>
        <mxCell id="tQcQAvEuLJjqKO4Kpg8U-151" value="Address" style="swimlane;fontStyle=0;childLayout=stackLayout;horizontal=1;startSize=26;fillColor=#f5f5f5;horizontalStack=0;resizeParent=1;resizeParentMax=0;resizeLast=0;collapsible=1;marginBottom=0;swimlaneFillColor=#ffffff;align=center;fontSize=14;strokeColor=#666666;fontColor=#333333;" parent="tQcQAvEuLJjqKO4Kpg8U-164" vertex="1">
          <mxGeometry x="260" y="514" width="170" height="186" as="geometry">
            <mxRectangle x="-590" width="90" height="26" as="alternateBounds"/>
          </mxGeometry>
        </mxCell>
        <mxCell id="tQcQAvEuLJjqKO4Kpg8U-152" value="address" style="shape=partialRectangle;top=0;left=0;right=0;bottom=1;align=left;verticalAlign=middle;fillColor=none;spacingLeft=34;spacingRight=4;overflow=hidden;rotatable=0;points=[[0,0.5],[1,0.5]];portConstraint=eastwest;dropTarget=0;fontStyle=5;fontSize=12;" parent="tQcQAvEuLJjqKO4Kpg8U-151" vertex="1">
          <mxGeometry y="26" width="170" height="30" as="geometry"/>
        </mxCell>
        <mxCell id="tQcQAvEuLJjqKO4Kpg8U-153" value="ID address" style="shape=partialRectangle;top=0;left=0;right=0;bottom=0;align=left;verticalAlign=top;fillColor=none;spacingLeft=34;spacingRight=4;overflow=hidden;rotatable=0;points=[[0,0.5],[1,0.5]];portConstraint=eastwest;dropTarget=0;fontSize=12;" parent="tQcQAvEuLJjqKO4Kpg8U-151" vertex="1">
          <mxGeometry y="56" width="170" height="26" as="geometry"/>
        </mxCell>
        <mxCell id="tQcQAvEuLJjqKO4Kpg8U-154" value="street numbers" style="shape=partialRectangle;top=0;left=0;right=0;bottom=0;align=left;verticalAlign=top;fillColor=none;spacingLeft=34;spacingRight=4;overflow=hidden;rotatable=0;points=[[0,0.5],[1,0.5]];portConstraint=eastwest;dropTarget=0;fontSize=12;" parent="tQcQAvEuLJjqKO4Kpg8U-151" vertex="1">
          <mxGeometry y="82" width="170" height="26" as="geometry"/>
        </mxCell>
        <mxCell id="tQcQAvEuLJjqKO4Kpg8U-155" value="street names" style="shape=partialRectangle;top=0;left=0;right=0;bottom=0;align=left;verticalAlign=top;fillColor=none;spacingLeft=34;spacingRight=4;overflow=hidden;rotatable=0;points=[[0,0.5],[1,0.5]];portConstraint=eastwest;dropTarget=0;fontSize=12;" parent="tQcQAvEuLJjqKO4Kpg8U-151" vertex="1">
          <mxGeometry y="108" width="170" height="26" as="geometry"/>
        </mxCell>
        <mxCell id="tQcQAvEuLJjqKO4Kpg8U-156" value="zip code" style="shape=partialRectangle;top=0;left=0;right=0;bottom=0;align=left;verticalAlign=top;fillColor=none;spacingLeft=34;spacingRight=4;overflow=hidden;rotatable=0;points=[[0,0.5],[1,0.5]];portConstraint=eastwest;dropTarget=0;fontSize=12;strokeWidth=1;" parent="tQcQAvEuLJjqKO4Kpg8U-151" vertex="1">
          <mxGeometry y="134" width="170" height="26" as="geometry"/>
        </mxCell>
        <mxCell id="tQcQAvEuLJjqKO4Kpg8U-157" value="cities" style="shape=partialRectangle;top=0;left=0;right=0;bottom=0;align=left;verticalAlign=top;fillColor=none;spacingLeft=34;spacingRight=4;overflow=hidden;rotatable=0;points=[[0,0.5],[1,0.5]];portConstraint=eastwest;dropTarget=0;fontSize=12;strokeWidth=1;" parent="tQcQAvEuLJjqKO4Kpg8U-151" vertex="1">
          <mxGeometry y="160" width="170" height="26" as="geometry"/>
        </mxCell>
        <mxCell id="tQcQAvEuLJjqKO4Kpg8U-158" style="edgeStyle=orthogonalEdgeStyle;rounded=0;orthogonalLoop=1;jettySize=auto;html=1;exitX=1;exitY=0.5;exitDx=0;exitDy=0;entryX=0;entryY=0.5;entryDx=0;entryDy=0;fontColor=#000000;" parent="tQcQAvEuLJjqKO4Kpg8U-164" source="tQcQAvEuLJjqKO4Kpg8U-72" target="tQcQAvEuLJjqKO4Kpg8U-152" edge="1">
          <mxGeometry relative="1" as="geometry"/>
        </mxCell>
        <mxCell id="tQcQAvEuLJjqKO4Kpg8U-159" style="edgeStyle=orthogonalEdgeStyle;rounded=0;orthogonalLoop=1;jettySize=auto;html=1;exitX=1;exitY=0.5;exitDx=0;exitDy=0;entryX=0;entryY=0.5;entryDx=0;entryDy=0;fontColor=#000000;" parent="tQcQAvEuLJjqKO4Kpg8U-164" source="tQcQAvEuLJjqKO4Kpg8U-152" target="tQcQAvEuLJjqKO4Kpg8U-89" edge="1">
          <mxGeometry relative="1" as="geometry"/>
        </mxCell>
        <mxCell id="tQcQAvEuLJjqKO4Kpg8U-160" value="&lt;font color=&quot;#000000&quot;&gt;n, m&lt;/font&gt;m" style="text;html=1;align=center;verticalAlign=middle;resizable=0;points=[];autosize=1;fontColor=#FFFFFF;strokeColor=#000000;" parent="tQcQAvEuLJjqKO4Kpg8U-164" vertex="1">
          <mxGeometry x="160" y="474" width="50" height="20" as="geometry"/>
        </mxCell>
        <mxCell id="tQcQAvEuLJjqKO4Kpg8U-161" value="Habiter" style="text;html=1;align=center;verticalAlign=middle;resizable=0;points=[];autosize=1;fontColor=#000000;strokeColor=#000000;" parent="tQcQAvEuLJjqKO4Kpg8U-164" vertex="1">
          <mxGeometry x="160" y="494" width="50" height="20" as="geometry"/>
        </mxCell>
        <mxCell id="tQcQAvEuLJjqKO4Kpg8U-162" value="&lt;font color=&quot;#000000&quot;&gt;n, m&lt;/font&gt;m" style="text;html=1;align=center;verticalAlign=middle;resizable=0;points=[];autosize=1;fontColor=#FFFFFF;strokeColor=#000000;" parent="tQcQAvEuLJjqKO4Kpg8U-164" vertex="1">
          <mxGeometry x="490" y="515" width="50" height="20" as="geometry"/>
        </mxCell>
        <mxCell id="tQcQAvEuLJjqKO4Kpg8U-163" value="Localiser" style="text;html=1;align=center;verticalAlign=middle;resizable=0;points=[];autosize=1;fontColor=#000000;strokeColor=#000000;" parent="tQcQAvEuLJjqKO4Kpg8U-164" vertex="1">
          <mxGeometry x="490" y="535" width="60" height="20" as="geometry"/>
        </mxCell>
        <mxCell id="tQcQAvEuLJjqKO4Kpg8U-165" value="&lt;font color=&quot;#000000&quot;&gt;n, m&lt;/font&gt;" style="text;html=1;align=center;verticalAlign=middle;resizable=0;points=[];autosize=1;fontColor=#FFFFFF;strokeColor=#000000;" parent="tQcQAvEuLJjqKO4Kpg8U-164" vertex="1">
          <mxGeometry x="630" y="41" width="40" height="20" as="geometry"/>
        </mxCell>
        <mxCell id="tQcQAvEuLJjqKO4Kpg8U-168" value="1, n" style="text;html=1;align=center;verticalAlign=middle;resizable=0;points=[];autosize=1;fontColor=#000000;strokeColor=#000000;" parent="tQcQAvEuLJjqKO4Kpg8U-164" vertex="1">
          <mxGeometry x="553" y="195" width="40" height="20" as="geometry"/>
        </mxCell>
        <mxCell id="tQcQAvEuLJjqKO4Kpg8U-169" value="Contenir" style="text;html=1;align=center;verticalAlign=middle;resizable=0;points=[];autosize=1;fontColor=#000000;strokeColor=#000000;" parent="tQcQAvEuLJjqKO4Kpg8U-164" vertex="1">
          <mxGeometry x="533" y="215" width="60" height="20" as="geometry"/>
        </mxCell>
      </root>
    </mxGraphModel>
  </diagram>
</mxfile>
